<svg xmlns="http://www.w3.org/2000/svg" width="48" height="48" viewBox="0 0 48 48" fill="none">
	<rect width="48" height="48" rx="8" fill="#0ea5a2"/>
	<!-- Scuba mask frame -->
	<path d="M8 22c0-5 4-9 9-9h14c5 0 9 4 9 9v4c0 2-1.5 3.5-3.5 3.5H11.5C9.5 29.5 8 28 8 26v-4z" fill="#023047" />
	<!-- Left lens -->
	<ellipse cx="16" cy="24" rx="5.2" ry="4.2" fill="#89f7ff" />
	<!-- Right lens -->
	<ellipse cx="32" cy="24" rx="5.2" ry="4.2" fill="#89f7ff" />
	<!-- Nose bridge -->
	<rect x="22" y="26" width="4" height="3" rx="1" fill="#012a36" />
	<!-- Strap connectors -->
	<circle cx="7.5" cy="24" r="1" fill="#012a36" />
	<circle cx="40.5" cy="24" r="1" fill="#012a36" />
	<!-- Highlights -->
	<path d="M13 21c1-1 3-1.5 5-1" stroke="#c9ffff" stroke-width="0.8" stroke-linecap="round" />
	<path d="M31 21c1-1 3-1.5 5-1" stroke="#c9ffff" stroke-width="0.8" stroke-linecap="round" />
</svg>